# xmcd
#
# Track frame offsets: 
#        150
#        13746
#        26905
#        39426
#        56158
#        66971
#        79998
#        93168
#        108391
#        121207
#
# Disc length: 1766 seconds
#
# Revision: 2
# Processed by: cddbd v1.5.2PL0 Copyright (c) Steve Scherf et al.
# Submitted via: ExactAudioCopy v0.99pb3
#
DISCID=8206e40a
DTITLE=Deborah Holland - The Panic Is On - Songs from the Great Depres
DTITLE=sion
DYEAR=1997
DGENRE=Folk
TTITLE0=We Sure Got Hard Times Now
TTITLE1=How Can A Poor Man Stand Such Times And Live?
TTITLE2=I Am A Union Woman (Join The CIO)
TTITLE3=Brother, Can You Spare A Dime?
TTITLE4=The Panic Is On
TTITLE5=Ten Cents A Dance
TTITLE6=Do Re Mi
TTITLE7=Worried Man Blues
TTITLE8=Detroit Moan
TTITLE9=Remember My Forgotten Man
EXTD=
EXTT0=Deborah Holland
EXTT1=Deborah Holland
EXTT2=Deborah Holland
EXTT3=Deborah Holland
EXTT4=Deborah Holland
EXTT5=Deborah Holland
EXTT6=Deborah Holland
EXTT7=Deborah Holland
EXTT8=Deborah Holland
EXTT9=Deborah Holland
PLAYORDER=
